<?xml version="1.0" standalone="no"?>
<!DOCTYPE svg PUBLIC "-//W3C//DTD SVG 20010904//EN"
 "http://www.w3.org/TR/2001/REC-SVG-20010904/DTD/svg10.dtd">
<svg version="1.0" xmlns="http://www.w3.org/2000/svg"
 width="874.000000pt" height="874.000000pt" viewBox="0 0 874.000000 874.000000"
 preserveAspectRatio="xMidYMid meet">
<metadata>
Created by potrace 1.11, written by Peter Selinger 2001-2013
</metadata>
<g transform="translate(0.000000,874.000000) scale(0.100000,-0.100000)"
fill="#000000" stroke="none">
<path d="M2473 7642 l-1882 -1087 0 -2185 0 -2185 1881 -1085 c1034 -597 1889
-1085 1899 -1085 10 0 864 488 1898 1085 l1881 1085 0 2185 0 2185 -1881 1085
c-1034 597 -1887 1086 -1897 1087 -9 1 -864 -487 -1899 -1085z m1949 -723 c45
-24 48 -52 48 -489 l0 -410 841 -2 841 -3 24 -28 24 -28 0 -370 c0 -388 -3
-416 -45 -433 -9 -3 -392 -6 -851 -6 l-834 0 0 -245 0 -245 476 0 476 0 29
-29 29 -29 0 -321 0 -321 -29 -32 -29 -33 -476 -3 -476 -3 0 -239 0 -240 1199
0 1200 0 28 -24 28 -24 0 -342 0 -342 -28 -24 -28 -24 -1200 0 -1199 0 0 -365
c0 -389 -3 -420 -48 -444 -26 -14 -78 -14 -104 0 -45 24 -48 55 -48 444 l0
365 -474 0 c-261 0 -482 3 -491 6 -41 16 -45 48 -45 379 0 322 2 344 39 372
12 9 134 12 494 13 l477 0 0 245 0 245 -1199 0 -1200 0 -28 24 -28 24 -3 332
-3 331 30 29 29 30 1201 0 1201 0 0 245 0 245 -479 0 -479 0 -26 31 -27 31 3
379 3 378 23 23 23 23 479 3 480 3 0 410 c0 432 3 462 47 488 24 14 79 14 105
0z"/>
</g>
</svg>
